nColumns=28
nRows=39
DataType=double
version=3
OpenSimVersion=4.1
endheader
time	ground_force_1_vx	ground_force_1_vy	ground_force_1_vz	ground_force_1_px	ground_force_1_py	ground_force_1_pz	ground_force_1_mx	ground_force_1_my	ground_force_1_mz	ground_force_2_vx	ground_force_2_vy	ground_force_2_vz	ground_force_2_px	ground_force_2_py	ground_force_2_pz	ground_force_2_mx	ground_force_2_my	ground_force_2_mz	ground_force_3_vx	ground_force_3_vy	ground_force_3_vz	ground_force_3_px	ground_force_3_py	ground_force_3_pz	ground_force_3_mx	ground_force_3_my	ground_force_3_mz
0	0.714623	407.474	-51.2459	-0.206225	0.006	-0.332077	0	-2.45308	0	-4.24398	385.519	52.3535	-0.201178	0.006	-0.866487	0	3.54192	0	0	0	0	0	0	0	0	0	0
0.01	0.536738	406.819	-51.1605	-0.206042	0.006	-0.331945	0	-2.42161	0	-4.22867	386.681	52.5365	-0.201126	0.006	-0.866382	0	3.55949	0	0	0	0	0	0	0	0	0	0
0.02	0.333899	406.068	-51.0586	-0.205828	0.006	-0.331815	0	-2.38793	0	-4.24525	388.033	52.7534	-0.201055	0.006	-0.866274	0	3.57262	0	0	0	0	0	0	0	0	0	0
0.03	0.105435	405.225	-50.9399	-0.205589	0.006	-0.331689	0	-2.35274	0	-4.30255	389.562	53.0024	-0.200961	0.006	-0.866164	0	3.58008	0	0	0	0	0	0	0	0	0	0
0.04	-0.151634	404.295	-50.804	-0.205326	0.006	-0.331571	0	-2.31665	0	-4.40881	391.242	53.2805	-0.200842	0.006	-0.866053	0	3.58094	0	0	0	0	0	0	0	0	0	0
0.05	-0.443106	403.276	-50.6496	-0.205044	0.006	-0.33146	0	-2.28022	0	-4.57189	393.037	53.5833	-0.200696	0.006	-0.865942	0	3.57447	0	0	0	0	0	0	0	0	0	0
0.06	-0.777834	402.159	-50.4745	-0.204747	0.006	-0.331355	0	-2.24389	0	-4.79789	394.904	53.9049	-0.200525	0.006	-0.865828	0	3.56023	0	0	0	0	0	0	0	0	0	0
0.07	-1.16821	400.925	-50.2759	-0.204436	0.006	-0.331253	0	-2.20791	0	-5.09051	396.795	54.2385	-0.200334	0.006	-0.865713	0	3.53801	0	0	0	0	0	0	0	0	0	0
0.08	-1.63072	399.547	-50.0501	-0.204114	0.006	-0.331152	0	-2.1723	0	-5.45159	398.661	54.5771	-0.200128	0.006	-0.865595	0	3.50781	0	0	0	0	0	0	0	0	0	0
0.09	-2.18557	398	-49.7939	-0.20378	0.006	-0.331049	0	-2.13681	0	-5.8816	400.46	54.9142	-0.199916	0.006	-0.865472	0	3.46978	0	0	0	0	0	0	0	0	0	0
0.1	-2.85594	396.271	-49.5048	-0.20344	0.006	-0.33094	0	-2.10106	0	-6.37996	402.155	55.2443	-0.199709	0.006	-0.865342	0	3.4241	0	0	0	0	0	0	0	0	0	0
0.11	-3.66705	394.354	-49.181	-0.203097	0.006	-0.330824	0	-2.06448	0	-6.94552	403.717	55.5634	-0.199518	0.006	-0.865202	0	3.37084	0	0	0	0	0	0	0	0	0	0
0.12	-4.64446	392.254	-48.8219	-0.202761	0.006	-0.330701	0	-2.02644	0	-7.57725	405.123	55.8681	-0.199357	0.006	-0.865049	0	3.30996	0	0	0	0	0	0	0	0	0	0
0.13	-5.81079	389.984	-48.4296	-0.202446	0.006	-0.33057	0	-1.98625	0	-8.27467	406.344	56.1547	-0.199244	0.006	-0.864878	0	3.24127	0	0	0	0	0	0	0	0	0	0
0.14	-7.1812	387.564	-48.0096	-0.202173	0.006	-0.330433	0	-1.94306	0	-9.03749	407.348	56.4197	-0.199194	0.006	-0.864681	0	3.16438	0	0	0	0	0	0	0	0	0	0
0.15	-8.75848	385.028	-47.5718	-0.201973	0.006	-0.330296	0	-1.89589	0	-9.86462	408.105	56.6597	-0.199229	0.006	-0.864453	0	3.07885	0	0	0	0	0	0	0	0	0	0
0.16	-10.528	382.418	-47.13	-0.201887	0.006	-0.330164	0	-1.84383	0	-10.7527	408.588	56.8709	-0.199371	0.006	-0.864188	0	2.98422	0	0	0	0	0	0	0	0	0	0
0.17	-12.4542	379.784	-46.7005	-0.201968	0.006	-0.330046	0	-1.78602	0	-11.6951	408.778	57.0486	-0.199648	0.006	-0.863878	0	2.87998	0	0	0	0	0	0	0	0	0	0
0.18	-14.4817	377.175	-46.3003	-0.202278	0.006	-0.329952	0	-1.72175	0	-12.6808	408.648	57.1858	-0.200086	0.006	-0.863516	0	2.76555	0	0	0	0	0	0	0	0	0	0
0.19	-16.5362	374.64	-45.9431	-0.202883	0.006	-0.329897	0	-1.65046	0	-13.6946	408.166	57.2727	-0.200716	0.006	-0.863096	0	2.64055	0	0	0	0	0	0	0	0	0	0
0.2	-18.5307	372.226	-45.6363	-0.203849	0.006	-0.329895	0	-1.57207	0	-14.7154	407.285	57.2953	-0.20157	0.006	-0.86261	0	2.50495	0	0	0	0	0	0	0	0	0	0
0.21	-20.3712	369.977	-45.3793	-0.205237	0.006	-0.329963	0	-1.48696	0	-15.7178	405.946	57.235	-0.202676	0.006	-0.862051	0	2.35912	0	0	0	0	0	0	0	0	0	0
0.22	-21.965	367.929	-45.1629	-0.207095	0.006	-0.330116	0	-1.39591	0	-16.671	404.089	57.0699	-0.204063	0.006	-0.861414	0	2.20398	0	0	0	0	0	0	0	0	0	0
0.23	-23.2264	366.099	-44.9695	-0.209451	0.006	-0.330369	0	-1.30004	0	-17.5395	401.662	56.7765	-0.205754	0.006	-0.860694	0	2.04116	0	0	0	0	0	0	0	0	0	0
0.24	-24.0831	364.478	-44.7759	-0.212309	0.006	-0.33073	0	-1.20078	0	-18.2833	398.621	56.3313	-0.207767	0.006	-0.859887	0	1.87297	0	0	0	0	0	0	0	0	0	0
0.25	-24.4824	363.024	-44.5582	-0.215643	0.006	-0.331202	0	-1.09958	0	-18.8618	394.932	55.7117	-0.210113	0.006	-0.858993	0	1.70233	0	0	0	0	0	0	0	0	0	0
0.26	-24.3978	361.653	-44.2935	-0.219397	0.006	-0.33178	0	-0.99793	0	-19.2357	390.561	54.8978	-0.212789	0.006	-0.858011	0	1.53236	0	0	0	0	0	0	0	0	0	0
0.27	-23.8313	360.236	-43.9598	-0.223491	0.006	-0.332452	0	-0.897256	0	-19.3702	385.476	53.8727	-0.215782	0.006	-0.856948	0	1.36598	0	0	0	0	0	0	0	0	0	0
0.28	-22.8131	358.602	-43.5371	-0.227825	0.006	-0.333201	0	-0.798905	0	-19.2372	379.645	52.6251	-0.219066	0.006	-0.855808	0	1.20555	0	0	0	0	0	0	0	0	0	0
0.29	-21.3974	356.554	-43.0076	-0.232293	0.006	-0.334006	0	-0.70406	0	-18.8148	373.039	51.151	-0.222611	0.006	-0.854602	0	1.0527	0	0	0	0	0	0	0	0	0	0
0.3	-19.6539	353.888	-42.3558	-0.236793	0.006	-0.334849	0	-0.613658	0	-18.0879	365.637	49.4553	-0.226378	0.006	-0.85334	0	0.908299	0	0	0	0	0	0	0	0	0	0
0.31	-17.6601	350.412	-41.5698	-0.241236	0.006	-0.33571	0	-0.528431	0	-17.0478	357.436	47.5526	-0.230332	0.006	-0.852031	0	0.772511	0	0	0	0	0	0	0	0	0	0
0.32	-15.4952	345.984	-40.6426	-0.245549	0.006	-0.336575	0	-0.448994	0	-15.6938	348.465	45.4687	-0.234437	0.006	-0.850688	0	0.644942	0	0	0	0	0	0	0	0	0	0
0.33	-13.235	340.523	-39.574	-0.249678	0.006	-0.33743	0	-0.375781	0	-14.0347	338.787	43.2392	-0.238659	0.006	-0.849321	0	0.524849	0	0	0	0	0	0	0	0	0	0
0.34	-10.9489	334.026	-38.3722	-0.253585	0.006	-0.338268	0	-0.309053	0	-12.0934	328.509	40.9076	-0.242961	0.006	-0.847939	0	0.411358	0	0	0	0	0	0	0	0	0	0
0.35	-8.69939	326.568	-37.0544	-0.257244	0.006	-0.339081	0	-0.248935	0	-9.90884	317.778	38.5221	-0.247303	0.006	-0.846555	0	0.303709	0	0	0	0	0	0	0	0	0	0
0.36	-6.54164	318.304	-35.6482	-0.260641	0.006	-0.339863	0	-0.195488	0	-7.53441	306.775	36.1312	-0.25164	0.006	-0.84518	0	0.201439	0	0	0	0	0	0	0	0	0	0
0.37	-4.52253	309.462	-34.1904	-0.263765	0.006	-0.340607	0	-0.148782	0	-5.0327	295.715	33.7807	-0.25592	0.006	-0.843826	0	0.104395	0	0	0	0	0	0	0	0	0	0
0.38	-2.68012	300.334	-32.7252	-0.266609	0.006	-0.341308	0	-0.109043	0	-2.47004	284.839	31.5115	-0.260087	0.006	-0.842505	0	0.012765	0	0	0	0	0	0	0	0	0	0
